<svg id="レイヤー_1" data-name="レイヤー 1" xmlns="http://www.w3.org/2000/svg" viewBox="0 0 288.78 53.74"><defs><style>.cls-1{fill:#231815;}.cls-2,.cls-3,.cls-4,.cls-5,.cls-6,.cls-7,.cls-8,.cls-9{fill:none;stroke-miterlimit:10;stroke-width:0.28px;}.cls-2,.cls-4{stroke:#231815;}.cls-3,.cls-6{stroke:#e60012;}.cls-4,.cls-5,.cls-6,.cls-7,.cls-8,.cls-9{stroke-linecap:square;}.cls-5{stroke:#0b318f;}.cls-7{stroke:#dae000;}.cls-8{stroke:#1d2088;}.cls-9{stroke:#0f3481;}</style></defs><path class="cls-1" d="M45.45,227.58l-4,3.81a13.36,13.36,0,0,1-.56-3.74A12.88,12.88,0,0,1,46.5,216.8q4.17-3.11,11.49-3.1H72.55q9.06,0,9-5.59a5.6,5.6,0,0,0-1.34-3.61l3.07-2.92a6.13,6.13,0,0,1,1.08,3.75,9.8,9.8,0,0,1-4.33,8.07,17.33,17.33,0,0,1-10.71,3.25H62.59l-1.83,16.49-.29,2.71a11.33,11.33,0,0,1-1.5,5,10.47,10.47,0,0,1-4.18,3l7.09.37L59,247.05l-11.9-.54,3.15-3,2.66.29q2.94-1.87,3.66-7.69l.24-2.36,1.89-17.08H54.52q-10.22,0-10.22,6.76A8.71,8.71,0,0,0,45.45,227.58Z" transform="translate(-40.91 -201.58)"/><path class="cls-1" d="M83.8,227.65,80,231.34a14,14,0,0,1-1-5.05,11.43,11.43,0,0,1,5.24-9.76q4.4-3.12,15-3.12c1.21,0,2.26,0,3.17.07l3.88.24H108q-1.91,3-1.9,12.05l0,1.26.1,2.81a45,45,0,0,0,1.24,10.33,8.08,8.08,0,0,0,1,2.63,2,2,0,0,0,1.61.59,6.33,6.33,0,0,0,2.83-.81,1.85,1.85,0,0,1,.18.69c0,.4-.32.75-1,1l-1.14.57-6,2.61a52.08,52.08,0,0,1-2.42-12.93l-1.85,1.29h-8.2q-2.25,5.72-6.15,8.15l5,.24L88.73,247,79,246.68l3.25-2.93,2.44.15a9.94,9.94,0,0,0,2.83-3.42A82.55,82.55,0,0,0,91,231.93l.73-2A38.26,38.26,0,0,1,96,221a15.39,15.39,0,0,1,5.51-4.59,43.59,43.59,0,0,0-8.07-.71q-10.81,0-10.81,7.29A9.65,9.65,0,0,0,83.8,227.65Zm18.66,5.56q-.34-4.23-.34-6.86c0-.9,0-1.63,0-2.2l.19-2.82a31.41,31.41,0,0,1,.54-4.44q-4.79,2.93-7.85,11.94c-.59,1.74-.93,2.74-1,3l-.56,1.39h9Z" transform="translate(-40.91 -201.58)"/><path class="cls-1" d="M119.34,227.58l-4,3.81a13.13,13.13,0,0,1-.56-3.79,12.36,12.36,0,0,1,4.69-10.1q4.69-3.8,12.47-3.8h1.93c-.74,3.72-1.19,6.23-1.34,7.51l-.82,7.3q11.38-14.72,18.73-14.71a12.28,12.28,0,0,1,3.47.48l-3.15,3.42a5.87,5.87,0,0,0-3-.81c-2.09,0-4.28,1-6.56,3a22.45,22.45,0,0,0-5.56,7.59A64.31,64.31,0,0,0,141,236l2.63,3.57c1.76,2.39,3.12,3.58,4.1,3.58q2,0,3.61-2.85c.44.37.66.68.66.92,0,1-.71,2.13-2.13,3.49s-2.63,2.05-3.63,2.05q-2.69,0-7.56-6.93a88.53,88.53,0,0,1-6.9-11.34l-.52,4.61-.32,2.71a11.2,11.2,0,0,1-1.5,5,10.67,10.67,0,0,1-4.15,3l5.75.37-2.92,2.83-10.56-.54,3.12-3,2.66.3q3-1.89,3.66-7.69l.27-2.36,1.89-17.08h-.76q-10.16,0-10.16,6.71A8.87,8.87,0,0,0,119.34,227.58Z" transform="translate(-40.91 -201.58)"/><path class="cls-1" d="M159.67,227.65l-3.83,3.69a14,14,0,0,1-1-5.05,11.43,11.43,0,0,1,5.24-9.76q4.39-3.12,15-3.12c1.21,0,2.26,0,3.17.07l3.88.24h1.71q-1.91,3-1.9,12.05l0,1.26.1,2.81a45,45,0,0,0,1.24,10.33,8.08,8.08,0,0,0,.95,2.63,2,2,0,0,0,1.61.59,6.33,6.33,0,0,0,2.83-.81,1.85,1.85,0,0,1,.18.69c0,.4-.32.75-1,1l-1.14.57-6,2.61a52.08,52.08,0,0,1-2.42-12.93l-1.85,1.29h-8.2q-2.25,5.72-6.15,8.15l5,.24L164.6,247l-9.74-.34,3.25-2.93,2.44.15a9.94,9.94,0,0,0,2.83-3.42,82.55,82.55,0,0,0,3.49-8.55l.73-2a38.26,38.26,0,0,1,4.27-8.91,15.39,15.39,0,0,1,5.51-4.59,43.59,43.59,0,0,0-8.07-.71q-10.81,0-10.81,7.29A9.65,9.65,0,0,0,159.67,227.65Zm18.66,5.56Q178,229,178,226.35c0-.9,0-1.63,0-2.2l.2-2.82a31.69,31.69,0,0,1,.53-4.44q-4.78,2.93-7.85,11.94c-.59,1.74-.93,2.74-1,3l-.56,1.39h9Z" transform="translate(-40.91 -201.58)"/><path class="cls-1" d="M237.52,227.58l-4,3.81a13.49,13.49,0,0,1-.56-3.79,12.38,12.38,0,0,1,4.68-10.1q4.68-3.8,12.44-3.8H252c-.73,3.72-1.17,6.23-1.32,7.51l-1.32,11.93-.32,2.71a11.22,11.22,0,0,1-1.49,5,10.6,10.6,0,0,1-4.16,3l7.07.37-2.93,2.83-11.87-.54,3.12-3,2.66.29c2-1.25,3.2-3.82,3.66-7.69l.27-2.36,1.89-17.08h-.76q-10.16,0-10.16,6.71A8.77,8.77,0,0,0,237.52,227.58Z" transform="translate(-40.91 -201.58)"/><path class="cls-1" d="M280.81,230c.33.62.56,1.08.71,1.39A111.23,111.23,0,0,0,287,241.3c1.09,1.57,2.1,2.38,3,2.43q2.2.12,3.42-3.37c.54.31.81.65.81,1,0,1-.69,2.31-2.07,3.83s-2.53,2.3-3.46,2.3q-2,0-5.27-4.44a63.12,63.12,0,0,1-6.43-11.61c-.9.08-1.66.12-2.3.12s-1.4,0-2.35-.12l-.18,1.61-.31,2.8a11.4,11.4,0,0,1-1.49,5,10.59,10.59,0,0,1-4.17,3l5.76.37-2.93,2.83-10.57-.54,3.13-3,2.66.29q2.94-1.87,3.65-7.69l.27-2.36,2-18.49q-11.1,2.08-11.1,8.36a9.28,9.28,0,0,0,1.05,4.47l-3.93,3.46a14.43,14.43,0,0,1-.51-3.8,12.91,12.91,0,0,1,5.64-10.81q5.63-4.2,14.51-4.2,12,0,12.05,7.67Q288,226,280.81,230Zm-6.58-15-1.57,14.17a22.58,22.58,0,0,0,3.57.32,19.32,19.32,0,0,0,3.31-.32c2.92-2.09,4.38-4.61,4.38-7.58Q283.92,215.06,274.23,215.07Z" transform="translate(-40.91 -201.58)"/><path class="cls-2" d="M298.88,232.11" transform="translate(-40.91 -201.58)"/><path class="cls-3" d="M308,230.8" transform="translate(-40.91 -201.58)"/><path class="cls-4" d="M100.36,107" transform="translate(-40.91 -201.58)"/><path class="cls-4" d="M309.29,249.63" transform="translate(-40.91 -201.58)"/><path class="cls-4" d="M307.91,249" transform="translate(-40.91 -201.58)"/><path class="cls-4" d="M307.91,249" transform="translate(-40.91 -201.58)"/><path class="cls-4" d="M308.05,249" transform="translate(-40.91 -201.58)"/><path class="cls-5" d="M317.92,214.19s-.34,5.68,9.41,10.51h2.2s.34.68-1.78.85c0,0-3.73,4-1.7,10.85,0,0,2.8,1.44,2.21,1.78a4.49,4.49,0,0,1-2.54-.77s-8.06,2-11.45,8.48l.59,1.61s-.67.68-2-1.86c0,0-6.87-1.7-11.11-.59l-1,2s-1.34.58.38-2.36c0,0-3.47-9.5-9-10.26,0,0-3,.47,0-1.07,0,0,4.54-7.51.41-10.88l-2-.85s-1.31-1.44,2.63.41,9.83-6.24,10.43-7.93a2.09,2.09,0,0,0,.15-1s0-1.53.54-1.2l1.31,1.14a20,20,0,0,0,11.06.8S318.39,211.15,317.92,214.19Z" transform="translate(-40.91 -201.58)"/><path class="cls-4" d="M308.74,220.79" transform="translate(-40.91 -201.58)"/><path class="cls-6" d="M317.13,215.73s-.55,3.92,8.93,9.37l-4.25,1.14s-5.83-2.07-6.43-7.74Z" transform="translate(-40.91 -201.58)"/><path class="cls-6" d="M320.45,234.14s-1.48-3.2,1.25-7.14l4.36-1a13.28,13.28,0,0,0-1.14,10Z" transform="translate(-40.91 -201.58)"/><path class="cls-6" d="M320.05,235l4.38,1.69s-8.78,3.81-10.46,7.79L312.82,241S315.52,235.65,320.05,235Z" transform="translate(-40.91 -201.58)"/><path class="cls-6" d="M304.36,240.57s5.25-.93,7.65.49l1.2,3.87s-5.69-1.86-10.67-.93Z" transform="translate(-40.91 -201.58)"/><path class="cls-6" d="M296.32,233.32a9.39,9.39,0,0,1,7,7l-1.69,3.13s-2.17-8.11-8.11-9.42Z" transform="translate(-40.91 -201.58)"/><path class="cls-6" d="M296.07,232.11s3.49-4.51,0-7.72l-1.53-.87s3.49,4.63-1.47,9.8Z" transform="translate(-40.91 -201.58)"/><path class="cls-6" d="M295,223a10.41,10.41,0,0,0,9.38-8.5l1,2.67s.27,5.12-8.55,6.59Z" transform="translate(-40.91 -201.58)"/><path class="cls-6" d="M314.65,220a13,13,0,0,0,5.66,6.65l-4.75,1.07s-2.18-.78-2.26-4.93Z" transform="translate(-40.91 -201.58)"/><path class="cls-6" d="M315.74,228.57l4.67-1.11s-2.88,2-1.09,6.23l-2.69-1.24A3.19,3.19,0,0,1,315.74,228.57Z" transform="translate(-40.91 -201.58)"/><path class="cls-6" d="M318.87,234.4s-4.09.18-6.33,5.08l-1-3.43a6.18,6.18,0,0,1,4.63-2.84Z" transform="translate(-40.91 -201.58)"/><path class="cls-6" d="M304.75,239.48s4-1.53,7,.55l-1-3.69a5.39,5.39,0,0,0-4.35-.23Z" transform="translate(-40.91 -201.58)"/><path class="cls-6" d="M302,232s2.65,0,3.69,3.81l-1.74,3.43s-1-5.22-5.88-6.21Z" transform="translate(-40.91 -201.58)"/><path class="cls-6" d="M297.26,232.2l4.38-1s1.6-3.06-.72-4.68l-3.19-1.42A5.26,5.26,0,0,1,297.26,232.2Z" transform="translate(-40.91 -201.58)"/><path class="cls-6" d="M305.65,219.16s-.85,4.57-7.62,5.11l3.08,1.56s4.56.31,5.53-4.05Z" transform="translate(-40.91 -201.58)"/><path class="cls-6" d="M307.46,224.78l-.5-1.26s-.55,2.42-4.13,3l2.31.93S306.92,227.23,307.46,224.78Z" transform="translate(-40.91 -201.58)"/><path class="cls-6" d="M302.54,227.27c-.12-.13,2,.93,2,.93s1.51.74.17,2.15l-1.92.45S304,228.71,302.54,227.27Z" transform="translate(-40.91 -201.58)"/><path class="cls-6" d="M303.61,231.63s3,.41,2.61,3l.89-1.46s-.62-2.05-2-2.05Z" transform="translate(-40.91 -201.58)"/><path class="cls-6" d="M307.87,233.32s2.14-.37,2.05.37l.54,1.88s-.66-.79-3.35-.36Z" transform="translate(-40.91 -201.58)"/><path class="cls-6" d="M310.73,233.23l.43,1.78s2-2.37,3.55-2.33l-1.89-.85S311.05,232.26,310.73,233.23Z" transform="translate(-40.91 -201.58)"/><path class="cls-6" d="M312.82,229.18s-.22,1.26.38,1.62,1.51,1,1.51,1-.74-2.24-.2-2.79Z" transform="translate(-40.91 -201.58)"/><path class="cls-6" d="M312.52,224.35A4,4,0,0,0,314.2,228l-1.38.45a4.87,4.87,0,0,1-1-2.59Z" transform="translate(-40.91 -201.58)"/><path class="cls-6" d="M306.22,228.67s.35.86,0,1.32l1.74-.39Z" transform="translate(-40.91 -201.58)"/><path class="cls-6" d="M306.88,230.8s.82.67.78,1l.78-1.39Z" transform="translate(-40.91 -201.58)"/><path class="cls-6" d="M308.26,232.45s.95-.31,1.31,0l-.28-1.41Z" transform="translate(-40.91 -201.58)"/><path class="cls-6" d="M310.3,232.11s.44-1,1.29-1l-1.67-.73Z" transform="translate(-40.91 -201.58)"/><polygon class="cls-6" points="269.55 28.2 270.99 27.75 270.87 28.85 269.55 28.2"/><path class="cls-6" d="M311.18,227.11s-.13,1.29.25,1.31l-1.32.61Z" transform="translate(-40.91 -201.58)"/><path class="cls-6" d="M308.74,229l-.78-2.65s-.73,1.27-1.32,1.37Z" transform="translate(-40.91 -201.58)"/><polygon class="cls-6" points="267.83 24.13 269.85 24.52 268.56 27.09 267.83 24.13"/><path class="cls-6" d="M307.81,222.86l.45,1.73a4.16,4.16,0,0,0,2.92.66l.91-1.94S308.88,223.7,307.81,222.86Z" transform="translate(-40.91 -201.58)"/><path class="cls-6" d="M306.51,218.48l.95,3.15a6.88,6.88,0,0,0,5.16.86l1.71-3.33S308.61,220.1,306.51,218.48Z" transform="translate(-40.91 -201.58)"/><path class="cls-6" d="M316.52,214.82l-1.81,3.31s-5.78,1.07-8.65-1.42l-.41-2.65S309.66,216.76,316.52,214.82Z" transform="translate(-40.91 -201.58)"/><path class="cls-2" d="M298.88,232.11" transform="translate(-40.91 -201.58)"/><path class="cls-3" d="M308,230.8" transform="translate(-40.91 -201.58)"/><path class="cls-4" d="M100.36,107" transform="translate(-40.91 -201.58)"/><path class="cls-4" d="M308.74,220.79" transform="translate(-40.91 -201.58)"/><path class="cls-6" d="M314.65,220a13,13,0,0,0,5.66,6.65l-4.75,1.07s-2.18-.78-2.26-4.93Z" transform="translate(-40.91 -201.58)"/><path class="cls-4" d="M205.23,258.6" transform="translate(-40.91 -201.58)"/><path class="cls-7" d="M251.6,499.24" transform="translate(-40.91 -201.58)"/><path class="cls-7" d="M254.5,498.13" transform="translate(-40.91 -201.58)"/><path class="cls-7" d="M251,498.5" transform="translate(-40.91 -201.58)"/><path class="cls-4" d="M191.83,229.37" transform="translate(-40.91 -201.58)"/><path class="cls-4" d="M171.56,233.82" transform="translate(-40.91 -201.58)"/><path class="cls-8" d="M193.07,248" transform="translate(-40.91 -201.58)"/><path class="cls-5" d="M276.58,270" transform="translate(-40.91 -201.58)"/><path class="cls-4" d="M193.18,327.22" transform="translate(-40.91 -201.58)"/><path class="cls-4" d="M193.18,327.22" transform="translate(-40.91 -201.58)"/><path class="cls-4" d="M213.3,238.08" transform="translate(-40.91 -201.58)"/><path class="cls-4" d="M187.57,215.28" transform="translate(-40.91 -201.58)"/><path class="cls-4" d="M197.11,227" transform="translate(-40.91 -201.58)"/><path class="cls-4" d="M196.87,230.16" transform="translate(-40.91 -201.58)"/><path class="cls-4" d="M192.83,238.66" transform="translate(-40.91 -201.58)"/><path class="cls-4" d="M189.94,226.89s12.46-6,13-6l2,.58s-8.05,2.73-9.75,4.66c0,0-7.06,2.77-6.11,4.86" transform="translate(-40.91 -201.58)"/><path class="cls-4" d="M200.48,210.65c1-.2-2.34,0-4.53,6.12l-1,5.15,8.22-3.27,2.71,2.26-2.81-.92s-1.93.12-10.58,4.34c0,0-.78-7.74,2.31-11.79,0,0-4.15,4-4.85,14.35" transform="translate(-40.91 -201.58)"/><path class="cls-4" d="M219.12,212.29s2.2,6.05,1.84,9.28l-5.8-3.58-3,1.85s-.89-2.86-1.52-2.92.83,1.7.24,2.42l-3,.12s.35-3,.67-3-3.14,2.1-2.54,3.27l-2.33-2.36s.86-1.37-6.35,2.12c0,0,2.17-8.63,3.14-8.83" transform="translate(-40.91 -201.58)"/><path class="cls-4" d="M224.52,214.38s2.12,4.24.58,12.58l-9.25-6.2s-1-1-2.7.32c0,0,.61-1.63,1.91-1.6,0,0,7.77,3.9,7.68,4.46s-.09-10.73-3.62-11.65" transform="translate(-40.91 -201.58)"/><path class="cls-9" d="M224.52,214.38c2.24,1,2.78,9.6,2.78,9.6l-.31,6.28-11.74-7.94-.39.43,12.93,10.35c-1.8,11.61-8.73,16.58-8.73,16.58,6.55-10.14,5.51-16.28,5.51-16.28C224,233.26,214,223.17,214,223.17l-1.1.34,1,.49,7.64,11.36c-3,13.79-9.72,19.34-9.72,19.34a50.18,50.18,0,0,0,6.61-20.09c-1-.89-5.92-10.53-5.92-10.53l-.68.06-.59.79,1.6,1.87c.37,3.74-2.84,9.16-3.62,10.41l-.47-1-1.46-.1-.68.84c-2.3-3.94-1.91-11.19-1.91-11.19l1.57-1.55-.58-.49c-.83-.55-2.59,2.46-2.59,2.46-.81,1.82-5.14,7.5-5.14,7.5-2.21,2.58,3.05,19.87,3.05,19.87-7.25-13.49-6-20.49-6-20.49,1.72-3.79,9.47-10.34,9.47-10.34-2,0-12.41,8.47-12.41,8.47-2,7.66,2.66,16.32,2.66,16.32C187.42,238.13,189,231,189,231" transform="translate(-40.91 -201.58)"/><path class="cls-4" d="M200.09,244.54" transform="translate(-40.91 -201.58)"/><path class="cls-4" d="M197.86,244.51" transform="translate(-40.91 -201.58)"/><path class="cls-4" d="M200.27,245.18" transform="translate(-40.91 -201.58)"/><path class="cls-5" d="M312.73,211" transform="translate(-40.91 -201.58)"/></svg>